<?xml version="1.0" encoding="utf-8"?>
<!-- Generator: Adobe Illustrator 18.0.0, SVG Export Plug-In . SVG Version: 6.00 Build 0)  -->
<!DOCTYPE svg PUBLIC "-//W3C//DTD SVG 1.1//EN" "http://www.w3.org/Graphics/SVG/1.1/DTD/svg11.dtd">
<svg version="1.1" id="Calque_1" xmlns="http://www.w3.org/2000/svg" xmlns:xlink="http://www.w3.org/1999/xlink" x="0px" y="0px"
	 viewBox="0 0 200 200" enable-background="new 0 0 200 200" xml:space="preserve">
<defs>
	<filter id="Adobe_OpacityMaskFilter" filterUnits="userSpaceOnUse" x="10.4" y="10.1" width="180" height="180">
		<feColorMatrix  type="matrix" values="1 0 0 0 0  0 1 0 0 0  0 0 1 0 0  0 0 0 1 0"/>
	</filter>
</defs>
<mask maskUnits="userSpaceOnUse" x="10.4" y="10.1" width="180" height="180" id="SVGID_1_">
	<g filter="url(#Adobe_OpacityMaskFilter)">
		<circle fill="#FFFFFF" cx="100.4" cy="100.1" r="90"/>
	</g>
</mask>
<g mask="url(#SVGID_1_)">
	<linearGradient id="SVGID_2_" gradientUnits="userSpaceOnUse" x1="10.4" y1="100.1" x2="190.4" y2="100.1">
		<stop  offset="0" style="stop-color:#19BEC0"/>
		<stop  offset="1" style="stop-color:#19BEC0"/>
	</linearGradient>
	<circle fill="url(#SVGID_2_)" cx="100.4" cy="100.1" r="90"/>
	<g>
		<linearGradient id="SVGID_3_" gradientUnits="userSpaceOnUse" x1="140.276" y1="130.7329" x2="97.776" y2="95.2329">
			<stop  offset="0" style="stop-color:#19BEC0"/>
			<stop  offset="1" style="stop-color:#007883"/>
		</linearGradient>
		<polygon fill="url(#SVGID_3_)" enable-background="new    " points="97.1,185.8 50.2,148.1 138,37.7 184.9,75.4 		"/>
		<path fill="#D54F58" d="M124.9,63.6l-9.1-7.1c-3.6-2.8-4.2-8.1-1.4-11.7l7.1-9.1c2.8-3.6,8.1-4.2,11.7-1.4l9.1,7.1
			c3.6,2.8,4.2,8.1,1.4,11.7l-7.1,9.1C133.7,65.8,128.5,66.4,124.9,63.6z"/>
		
			<rect x="86" y="41.6" transform="matrix(0.787 0.617 -0.617 0.787 74.3869 -43.4584)" fill="#113F59" width="28.2" height="88.7"/>
		<rect x="99.5" y="46.4" transform="matrix(0.787 0.617 -0.617 0.787 78.549 -46.0808)" fill="#1C344D" width="13" height="88.7"/>
		<polygon fill="#F3EDD3" points="61.5,112.3 83.6,129.6 50.7,148.9 		"/>
		<polygon fill="#1A1A1A" points="55.3,133.1 64.9,140.6 50.7,148.9 		"/>
		<g>
			<path fill="#113F59" d="M101.1,158.3c-0.5,1.2-0.8,1.4-1.7,2.2c-0.3,0.1-0.7,0-1.1,0.2l-0.1-0.2l-0.2,0.2l-0.2-0.2l-0.2,0.1
				l-0.2-0.2l-0.2,0.1l-0.2-0.3l-0.1,0.1c-0.5-0.8-1.4-2.7-0.6-3.2c0,0,0,0.1,0.1,0c0.3-0.2,0.5-0.6,0.7-0.8
				c0.4-0.3,0.8-0.3,1.5-0.6l0.2,0.2l0.2-0.1c0.1,0.1,0.2,0.2,0.3,0.3l0.1-0.1l0.2,0.2c0.1,0,0.1,0,1.4,1.2
				C100.7,157.9,101.1,157.8,101.1,158.3z M95.7,147.3c-0.1,0.2-0.3,0.7-0.5,0.9c-0.3,0.2-0.6,0.1-0.9-0.2c0-0.2,0-0.3,0-0.5
				C94.8,147.1,95.2,146.7,95.7,147.3z M100.8,143.8l0.1-0.1l0.1,0.1l-0.1,0.1c0,0.2-0.3,0.3-0.5,0.5c-0.6,0.4-0.9,0.3-1.4,0.5
				l-0.2-0.3C99.5,144.1,100.2,143.6,100.8,143.8z M106.6,141.4c0.2-0.1,0.4-0.2,0.6-0.2l0.1,0.1l-0.9,0.6c-0.8,0.3-2.3,1.3-2.7,0.7
				l0.1-0.1c0-0.1,0-0.2,0-0.3l0.1-0.1l0.1,0.1l0.7-0.5l0.1,0.1l0.3-0.2l0.1,0.1l0.2-0.1l0.1,0.1l0.4-0.3l0.1,0.1l0.4-0.3l0.1,0.1
				l0.2-0.1L106.6,141.4z M119.5,162.2c0,0.2-0.2,0.6-0.2,0.8c-0.6,0.3-0.8,0.2-1.3-0.5c0.1-0.1,0.2-0.2,0.3-0.3l-0.2-0.2
				C118.7,161.8,118.9,161.4,119.5,162.2z M103.8,140.6l0.4-0.3l0.1,0.1c0,0.1,0.1,0,0.1,0c0,0.1-0.1,0.1-0.2,0.4
				C104.1,140.8,103.9,140.7,103.8,140.6z M156.1,109l0.1-0.1c0.2,0.3,0.4,0.5,0.6,0.6c-0.1,0.1-0.3,0.8-0.4,0.9l0.2,0.2
				c0,0.1-0.1,0.1-0.1,0.3l0.2,0.2l-0.1,0.1c0,0.1,0.1,0.3,0.2,0.4c0.1,0.1,0.1,0.2,0.2,0.3c0.1,0.1,0.1,0.3-0.1,0.6l0.1,0.1
				l-0.9,0.6l0.1,0.2c-0.2,0.1-0.1,0.9,0,1.2c-0.4,0.3-0.8,0.5-1.2,0.7l0.1,0.1l-0.3,0.2l0.1,0.1l-0.2,0.1l0.1,0.1l-0.2,0.1
				c0.1,0.1,0.1,0.4-0.1,0.5c-0.3,0.2-0.9,0.3-1.1,0.3l-0.1-0.1c-0.1,0-0.2,0.1-0.3,0.1c-0.3,0.2-0.5,0.5-0.6,0.7l0.1,0.1
				c-0.4,0.3-1,0.3-1.3,0.4c0.3,0.4,0.5,0.7,0.8,1c0,0.2-0.1,0.3-0.2,0.4l0.1,0.1l-0.2,0.1l0.1,0.1l-1.3,0.9c0,0.1,0.1,0.2,0,0.3
				l-0.2,0.1l-0.1,0.4l0.2,0.2c-0.3,0.2-0.2,0.5-0.2,0.5l-0.2,0.1l0.1,0.1c-0.1,0.6,0,1.2-0.6,1.7l0.1,0.1c-0.2,0.1-0.7,0-0.7,0
				l-0.2,0.2l-0.2-0.2c-0.4,0.4-1.2,0.8-1.1,1.3l-0.4,0.3l0.1,0.1l-0.1-0.1c-0.3,0.1-0.4,0.2-0.5,0.3c-0.2,0.2-0.3,0.4-0.3,0.7
				l-0.1,0.1c0.2,0.3,0.3,0.5,0.4,0.8l0.2,0.5l-0.1,0.1l0.3,0.4l-0.1,0.1l0.2,0.2l-0.1,0.1c0,0.1,0,0.3,0.1,0.4l-0.2,0.2
				c0.1,0.3,0.1,0.4,0,0.7l-0.1,0.1c0.1,0.4,0.2,0.6,0.1,1l0.2,0.2c-0.6,1-0.6,1.3-1.2,2.1l0.1,0.1l-0.2,0.2c0.3,0.4-0.5,0.6-0.2,1
				l-0.2,0.1l0.1,0.1c-0.2,0.1-0.2,0.2-0.4,0.4l0.1,0.1l-1,0.7c-0.1,0.1,0.1,0.1,0,0.2l-0.1,0.1c-0.1,0-0.1-0.1-0.3-0.1l-0.5,0.2
				c-0.3,0.2-0.5,0.4-0.8,0.6v-0.1c-0.3,0.2-0.3,0.3-0.3,0.3c-1.7,0.8-1-0.3-2.2-0.2c0,0.1,0,0.1-0.1,0.2l-0.1-0.1l-0.2,0.1
				c-0.3-0.1-0.6-0.3-0.8-0.5l-0.7,0.5c-0.2,0-0.3-0.1-0.4-0.2l-0.2,0.1l-0.1-0.1l-0.5,0.4c0-0.1-0.1-0.1-0.3-0.1l-0.2,0.2l-0.1-0.1
				c-0.1,0-0.1,0-0.2,0.1l-0.1-0.2l-0.1,0.1c-0.3-0.1-0.2-0.1-0.6,0.1c-0.1,0.3-0.3,0.7-0.4,0.9c0.3,0.4,0.5,0.9,0.7,1.2l-0.1,0.1
				l0.1,0.1l-0.8,0.5c0,0.1,0,0.1,0,0.2l-0.1,0.1c0.2,0.2,0.2,0.5,0.4,0.7l-0.2,0.1l0.2,0.3l-0.1,0.1l0.1,0.1l-0.3,0.2
				c-0.2-0.1-0.2,0.1-0.3,0l-0.3-0.4l-0.1,0.1c0-0.1,0-0.2,0-0.3l-1,0.1c-0.7-0.4-1.1-0.2-1.8,0.3c-0.3,0.2-0.5,0.4-0.3,0.9
				l-0.1,0.1l0.5,0.8l-0.1,0.1c0.1,0.5,0.2,0.6-0.4,1c-0.4-0.1-0.7-0.6-1-1l-0.1,0.1c-0.1-0.1-0.1-0.3-0.2-0.5l-0.1,0.1
				c-0.3-0.1-0.2-0.1-0.4-0.1l-0.1-0.1c-0.4,0.2-0.9,0.4-1.3,0.6l0.1,0.1l-0.2,0.2l0.1,0.1c-0.1,0.1-0.2,0.2-0.3,0.3l0.3,0.4
				c-0.2,0.4,0,0.3-0.5,0.6c-0.4-0.1-0.7-0.2-1-0.3l-0.4-0.5h-0.2c-0.6,0.4-1,0.3-1.6,0.7c0,0.3-0.2,0.5-0.5,0.9l0.1,0.1
				c-0.6,0.3-0.8,0.6-1.4-0.2c0-0.2,0.1-0.1-0.1-0.4V146l-0.3-0.4c-1-0.2-0.8-0.2-1.3-0.3l-0.2-0.2l-0.1,0.1l-0.2-0.2
				c-0.1,0-0.3,0-0.5,0l-0.3,0.1c-0.1-0.1-0.2-0.1-0.2-0.2l-0.2,0.1c-0.5-0.3-0.8-0.1-1.4,0.3c0,0.2-0.1,0.6-0.3,0.8
				c-0.4,0.3-0.6-0.1-0.9-0.5c0.1-0.4-0.1-0.8,0.2-1.3l-0.2-0.2c-0.9,0.1-0.8-0.5-1.9,0.2l0.1,0.1c-0.3,0.2-0.5,0.4-0.7,0.6
				c-0.3-0.2-0.3-0.1-0.6-0.5c0.2-0.4,0-0.2,0-0.5l0.1-0.1l-0.1-0.2c0.3-0.2,0.1-0.6,0-0.8c-0.4-0.6-1.2,0-1.7-0.6l-0.2-0.5l0.1-0.1
				l-0.1-0.2c0.2-0.3,0.2-0.4,0-0.5c-0.2-0.3-0.6-0.4-0.8-0.5l-0.2,0.1c-1.3-1-1.5-0.6-2.7-0.8l-0.2-0.2c-0.2,0-0.6,0.2-0.8,0.4
				v-0.1c-0.2,0.2-0.3,0.3-0.6,0.5l-0.5,0.2c-0.2-0.5,0-0.5,0.5-0.8l0.1,0.1l0.4-0.3c0.3,0,0.7-0.2,0.9-0.4c0.2-0.1,0.3-0.2,0.4-0.4
				l-0.1-0.1l0.2-0.1l-0.1-0.1l0.2-0.1l-0.1-0.1c0.2-0.4,0.5-0.6,0-1.2l-0.1,0.1c-0.5-0.7-1.2-0.2-1.3-0.2l-0.1-0.1l-0.4,0.3
				c0-0.1-0.1-0.1-0.2-0.2l-0.2,0.1c-1-0.2-1.5,0.6-2.2,0.2c0.5-0.2,1-0.2,1.5-0.3c0.3-0.3,0.7-0.6,1.1-0.9l0.1,0.1
				c0.4-0.3,0.8-0.4,1.1-0.6c0-0.1,0-0.3-0.1-0.4l0.2-0.2c-0.1-0.3-0.2-0.3-0.2-0.5l0.1-0.1l-0.9-1.3l0.1-0.1
				c-0.2-0.5-0.1-0.6-0.4-1.1c-0.5,0.1-1,0.3-1.5,0.4l-0.2-0.2c-0.8,0.4-1.9,0.2-2.2-0.3c0.1-0.1,0.1-0.2,0.2-0.3l-0.1-0.1l0.4-0.3
				c0.5,0.2,1.9,0.3,2.9-0.4l-0.1-0.1c0.2-0.3,0.1-0.3,0.2-0.6l0.1-0.1c-0.2-0.4-0.2-1.4-0.5-1.9l-0.1,0.1c-0.4-0.2-1-0.2-1.5-1
				c0.2-0.1,0.3-0.3,0.5-0.5l0.1,0.1c0.7-0.1,1.1,0.4,2-0.1c0-0.1,0-0.3,0.1-1.7l0.1-0.1l-0.2-0.3c-0.2-0.1-0.1,0-0.3-0.1l-0.2,0.1
				c-1.1-0.7-1.8-0.8-3.2-1.1L102,123c0.2-0.4,0.1-0.5,0.5-0.9c0.1,0.1,0.2,0.2,0.3,0.3l0.2-0.1c0.2,0.2,0.2,0.2,0.4,0.3l0.1-0.1
				l0.2,0.3l0.1-0.1l0.2,0.2c0.7-0.1,1.3,0.6,2,0.5l0.1,0.1c0.3,0,0.3,0,0.7-0.2l-0.1-0.1c0.2-0.2,0.5-0.4,0.6-0.6l-0.1-0.1
				c0.1-0.2,0.3-0.3,0.4-0.4l-0.4-0.6l0.1-0.1c-0.2-0.2-0.3-0.1-0.3-0.1l-0.4-0.5c0.2-0.3,0.1-0.3,0.5-0.7c0.2,0.2,1.2,0.4,1.8,0.1
				c0.1-0.5,0-0.6-0.3-1c-0.2-0.2-0.3-0.4-0.5-0.6l-0.1,0.1c-0.2-0.3-0.3-0.7-0.6-1.1l-0.1,0.1l-0.1-0.2l-0.1,0.1
				c-1-0.8-1.1-0.4-1.8-1.3l0.5-0.4c0.3,0.3,0.4,0.2,0.4,0.2l0.6,0.9l0.1-0.1l0.6,0.5l0.1-0.1l0.2,0.2l0.1-0.1l0.2,0.2l0.1-0.1
				l0.2,0.2l0.1-0.1l0.2,0.3c0.6,0.3,0.9,0.5,1.7,0.2l0.1,0.1l0.2-0.1c0.6,0.2,1.2-0.3,1.8-0.6c0-0.1,0.1-0.4,0.1-0.4l-0.3-0.4
				l0.1-0.1c-0.2-0.2-0.4-0.5-0.7-0.7l0.1-0.1l-0.3-0.4c0-0.1,0.1-0.1,0-0.5l0.2-0.1c0-0.6-0.2-0.8-0.7-1.5l0.1-0.1
				c0-0.2,0,0,0.1-0.3c0.3,0.3,0.6,0.7,0.9,1.1c0,0.1,0.1,0.2,0.1,0.3l0.1-0.1l0.2,0.2l0.1-0.1l0.9,1.3l0.1-0.1l0.2,0.2
				c0.1,0,0.3,0,0.5,0l0.1,0.1c0.4-0.3,1.3,1.3,2.7,0.4c0-0.4,0-0.2,0.2-0.4l-0.1-0.1c0.1-0.3,0.2-0.4,0.6-0.7
				c0.5,0.1,0.9,0.5,1.3,0.8l0.2-0.2l0.2,0.2c0.3,0,0.4,0.1,0.8,0l0.1,0.1c0.3-0.3,0.5-0.6,0.9-0.9c0.4,0.2,1,0.3,1.4,0.3
				c0,0.5,0,0.6,0.2,0.8c0.6,0.9,2-0.4,2.7,0.6c0.2,0.3,0.1,0.6,0.2,0.8l0.1-0.1c0.1,0,0.2,0.1,0.3,0.1c0.4-0.4,0.4-0.5,0.7-0.7
				c0.2-0.1,0.5-0.4,0.8,0.2c0,0.2-0.1,0,0,0.2l-0.2,0.1c0.1,0.3,0.1,0.3,0.1,0.6l-0.1,0.1c0,0.2,0.2,0.5,0.4,0.8l0.1-0.1l0.5,0.5
				c0.4,0,0.8-0.1,1.2-0.2c0.5,0.8,0.2,1.2,0.3,1.3c1,1.4,1.7,0.9,2.5,0.8c0.2,0.4,0.1,0.6-0.2,0.8l0.1,0.1
				c-0.2,0.2-0.3,0.3-0.5,0.5l0.3,0.4l-0.1,0.1c0.2,0.1,0.3,0.3,0.5,0.4l0.2-0.1c0.1,0.1,0.2,0.1,0.3,0.1l0.9-0.6
				c-0.1-0.2-0.2-0.4-0.2-0.6l-0.1,0.1l-0.2-0.2l-0.1,0.1c-0.3-0.1-0.3-0.1-0.6-0.4c0.1-0.1,0.5-0.8,0.5-1l-0.3-0.4l0.1-0.1
				l-0.1-0.2l0.1-0.1l-0.8-1.3c0.1-0.3,0.2-0.5,0.2-0.8l-0.2-0.2l0.1-0.1l-0.1-0.2l0.1-0.1c-0.1-0.1-0.3-0.1-0.3-0.1l-0.1-0.4
				c0.4-0.7-0.3-1.3,0.3-2.1l-0.1-0.1c0.1-0.1,0.1-0.2,0.2-0.2c0.2-0.1,0.4-0.2,0.6-0.3c0.2-0.1,0.3-0.3,0.4-0.6l0.1-0.1l-0.1-0.2
				c0.1,0,0.1-0.1,0.1-0.3l-0.2-0.3l0.1-0.1l-0.2-0.2c-0.1-0.1-0.3,0.1-0.4,0v-0.1l0.1-0.1c-0.1-0.2,0-0.6,0-0.7c0,0.1,0,0.1,0.1,0
				l0.4-0.3c0.8,0.5,1.2,0.1,1.9-0.2c-0.1-0.7-0.4-1.3,0.4-1.8c0.2,0.1,0.1,0.1,0.4-0.1l0.1,0.2c0.4-0.1,0.3,0.1,0.9-0.3
				c0.1-0.4,0.2-1.3,0.4-1.4c0.1-0.1,0.3-0.1,0.5-0.2l0.1,0.2c0.1-0.1,0.2-0.1,0.3-0.1l0.6,0.9l0.2-0.1l0.3,0.3
				c0.3-0.2,0.7-0.2,1-0.4c0.1,0,0.2-0.1,0.2-0.2l-0.1-0.1c0.1-0.1,0.2-0.3,0.4-0.4c0.1,0,0.2-0.1,0.3-0.1l0.9-0.4l0.1,0.1
				c0.7-0.1,0.9,0,1.4,0.7l0.3-0.1c0.1-0.1,0.2-0.2,0.2-0.2l1.3-0.9l-0.1-0.1l0.2-0.1c-0.1-0.3,0-0.5,0.3-0.7l-0.1-0.1
				c0.2-0.1,0.4-0.2,0.6-0.2l0.1,0.1c0.3-0.3,0.6-0.6,1-0.8c0.2,0,0.4,0.1,0.6,0.2l0.1-0.1l0.1,0.2l0.1-0.1c0.1,0.1,0.2,0.1,0.3,0.1
				l0.7-0.5l-0.1-0.1c0.2-0.1,0.4-0.1,0.5-0.2c1.1,1.5,1.5,0.3,2.5,0.8c0.7,0.2,1.5,2.1,2.3,2l0.1,0.1l0.2-0.1
				c0.1,0,0.3,0.1,0.3,0.3c0.1,0.1,0.1,0.2,0.2,0.2C155.9,108.3,155.7,108.5,156.1,109z M109.1,140.3l0.1-0.1l0.2,0.3
				c-0.2,0.4-0.4,0.7-0.6,0.8s-0.6,0.1-0.9-0.4l0.1-0.1l-0.1-0.1l0.5-0.3l-0.1-0.1l0.4-0.3C108.9,140.1,109,140.2,109.1,140.3z
				 M127.5,146.9l0.1-0.1l0.6,0.9c-0.3,0.8,0.1,1.6-0.9,2.3c-0.5,0.3-1.1,0.8-1.8,0.2l-0.3,0.2c-0.3-0.1-0.4-0.2-0.8-0.7h-0.1
				c-0.1-0.1-0.1-0.3-0.2-0.4c0-0.1-0.2-0.1-0.3-0.3c0-0.1-0.1-0.1-0.1-0.2h0.1c-0.2-1.2-0.2-1.3,0.5-2.2l0.9-0.6
				c0.3,0.1,0.8,0,1.2-0.1C126.8,146.4,127.1,146.7,127.5,146.9z M111.7,109.8L111.7,109.8c-0.5-1.8,0.4-2.6,1.2-3.4
				c0.6,0.2,0.9-0.3,1.8,0.1l0.1-0.1l0.2,0.2l0.1-0.1l0.3,0.4l0.1-0.1c0.7,1,0.7,2.1,0.5,2.5l0.1,0.1l-0.2,0.1c0,0.1,0.1,0.2,0,0.3
				l-0.5,0.4c-0.2,0.1-0.1,0.3-0.1,0.3c-0.6,0.3-1.3,0.8-2.2,0.4C112.4,110.8,112.1,110.3,111.7,109.8z M139.5,142.3
				c0.5,0.7-0.1,1.8-0.9,2.4c-0.2-0.2-0.4-0.4-0.6-0.7c0.2-0.5,0.3-0.7,0.2-1.2l0.2-0.1l-0.1-0.1c0.1-0.3,0.2-0.1,0.2-0.4
				C139,141.9,139.2,141.9,139.5,142.3z M162.1,133.8c0.6,0,1.2,0.7,1.6,1.2c-0.3,0.1-0.3,0.1-0.6-0.1L163,135L162.1,133.8z
				 M137,90.6c-0.2-0.3-0.5-1-0.6-1.1l0.1-1.1l0.2-0.1c0-0.1,0-0.2,0-0.3l0.3-0.2l-0.1-0.1c1.2-0.7,2.5-1.4,3.9,0.7
				c0.4,0.6-0.1,1.4,0.1,1.6l-0.5,0.4c0.1,0.1,0.1,0.2,0,0.3l-0.2,0.1l0.1,0.1c-0.9,0.3-1.4,0.8-2.5,0.1l-0.1,0.1l-0.2-0.3
				C137.3,90.7,137.2,90.8,137,90.6z"/>
		</g>
	</g>
</g>
</svg>
