<?xml version="1.0" encoding="utf-8"?>
<!-- Generator: Adobe Illustrator 18.0.0, SVG Export Plug-In . SVG Version: 6.00 Build 0)  -->
<!DOCTYPE svg PUBLIC "-//W3C//DTD SVG 1.1//EN" "http://www.w3.org/Graphics/SVG/1.1/DTD/svg11.dtd">
<svg version="1.1" id="Calque_1" xmlns="http://www.w3.org/2000/svg" xmlns:xlink="http://www.w3.org/1999/xlink" x="0px" y="0px"
	 viewBox="0 0 200 200" enable-background="new 0 0 200 200" xml:space="preserve">
<defs>
	<filter id="Adobe_OpacityMaskFilter" filterUnits="userSpaceOnUse" x="9.4" y="11.1" width="180" height="180">
		<feColorMatrix  type="matrix" values="1 0 0 0 0  0 1 0 0 0  0 0 1 0 0  0 0 0 1 0"/>
	</filter>
</defs>
<mask maskUnits="userSpaceOnUse" x="9.4" y="11.1" width="180" height="180" id="SVGID_1_">
	<g filter="url(#Adobe_OpacityMaskFilter)">
		<circle fill="#FFFFFF" cx="99.4" cy="101.1" r="90"/>
	</g>
</mask>
<g mask="url(#SVGID_1_)">
	<circle fill="#F57D57" cx="99.4" cy="101.1" r="90"/>
	
		<linearGradient id="SVGID_2_" gradientUnits="userSpaceOnUse" x1="118.101" y1="57.3524" x2="91.5966" y2="105.8498" gradientTransform="matrix(1 0 0 -1 0 200)">
		<stop  offset="0" style="stop-color:#F57D57"/>
		<stop  offset="1" style="stop-color:#DB4E48"/>
	</linearGradient>
	<polygon fill="url(#SVGID_2_)" points="155.4,58.4 187.1,110.1 54.9,179.5 23.2,127.8 	"/>
	<path fill="#1A1A1A" d="M152.3,128.7H46.8c-2.8,0-5.2-2.3-5.2-5.2V59.9c0-2.8,2.3-5.2,5.2-5.2h105.5c2.8,0,5.2,2.3,5.2,5.2v63.7
		C157.5,126.4,155.2,128.7,152.3,128.7z"/>
	<path fill="#333333" d="M148.5,126.5h-98c-1.4,0-2.6-1.2-2.6-2.6V63.2c0-1.4,1.2-2.6,2.6-2.6h98c1.4,0,2.6,1.2,2.6,2.6v60.7
		C151.1,125.3,150,126.5,148.5,126.5z"/>
	<path fill="#E6E6E6" d="M149.8,65.6H49.3c-0.7,0-1.3-0.6-1.3-1.3V62c0-0.7,0.6-1.3,1.3-1.3l100.5,0.1c0.7,0,1.3,0.6,1.3,1.3v2.3
		C151.1,65,150.5,65.6,149.8,65.6z"/>
	<path fill="#C6E070" d="M98.9,77.6h-43c-0.4,0-0.7-0.3-0.7-0.7v-0.6c0-0.4,0.3-0.7,0.7-0.7h43c0.4,0,0.7,0.3,0.7,0.7V77
		C99.6,77.3,99.2,77.6,98.9,77.6z"/>
	<path fill="#287D7D" d="M116.3,82H55.9c-0.4,0-0.7-0.3-0.7-0.7v-0.6c0-0.4,0.3-0.7,0.7-0.7h60.4c0.4,0,0.7,0.3,0.7,0.7v0.6
		C117,81.7,116.7,82,116.3,82z"/>
	<path fill="#F57D57" d="M88.3,98.7H55.9c-0.4,0-0.7-0.3-0.7-0.7v-0.6c0-0.4,0.3-0.7,0.7-0.7h32.4c0.4,0,0.7,0.3,0.7,0.7V98
		C89,98.3,88.7,98.7,88.3,98.7z"/>
	<path fill="#20D6C7" d="M108.3,98.7H92.6c-0.4,0-0.7-0.3-0.7-0.7v-0.6c0-0.4,0.3-0.7,0.7-0.7h15.7c0.4,0,0.7,0.3,0.7,0.7V98
		C109,98.3,108.7,98.7,108.3,98.7z"/>
	<path fill="#F57D57" d="M66.7,86.2H55.9c-0.4,0-0.7-0.3-0.7-0.7v-0.6c0-0.4,0.3-0.7,0.7-0.7h10.8c0.4,0,0.7,0.3,0.7,0.7v0.6
		C67.4,85.8,67.1,86.2,66.7,86.2z"/>
	<path fill="#F1523F" d="M126.8,94.5H96.5c-0.4,0-0.7-0.3-0.7-0.7v-0.6c0-0.4,0.3-0.7,0.7-0.7h30.3c0.4,0,0.7,0.3,0.7,0.7v0.6
		C127.5,94.2,127.2,94.5,126.8,94.5z"/>
	<path fill="#C04E6D" d="M93.2,94.5H55.9c-0.4,0-0.7-0.3-0.7-0.7v-0.6c0-0.4,0.3-0.7,0.7-0.7h37.3c0.4,0,0.7,0.3,0.7,0.7v0.6
		C93.9,94.2,93.5,94.5,93.2,94.5z"/>
	<path fill="#19BEC0" d="M105.4,86.2H69.8c-0.4,0-0.7-0.3-0.7-0.7v-0.6c0-0.4,0.3-0.7,0.7-0.7h35.7c0.4,0,0.7,0.3,0.7,0.7v0.6
		C106.1,85.8,105.8,86.2,105.4,86.2z"/>
	<circle fill="#D54F58" cx="51.1" cy="63.1" r="1.2"/>
	<circle fill="#F7B66D" cx="54.9" cy="63.1" r="1.2"/>
	<circle fill="#91C46C" cx="58.7" cy="63.1" r="1.2"/>
	<path fill="#E6E6E6" d="M170,128.8H24.5c-1,0-1.9-0.8-1.9-1.9v-5.7c0-1,0.8-1.9,1.9-1.9H170c1,0,1.9,0.8,1.9,1.9v5.7
		C171.9,128,171.1,128.8,170,128.8z"/>
	<path fill="#20D6C7" d="M167.2,124.1h-5.7c-0.2,0-0.3-0.1-0.3-0.3v-0.3c0-0.2,0.1-0.3,0.3-0.3h5.7c0.2,0,0.3,0.1,0.3,0.3v0.3
		C167.5,123.9,167.3,124.1,167.2,124.1z"/>
	<path fill="#999999" d="M92.1,121h16.8c0.9,0,1.7,0,1.7-2H90.5C90.5,121,91.2,121,92.1,121z"/>
	<rect x="14.6" y="136" fill="none" width="165.4" height="32.1"/>
	<g enable-background="new    ">
		<g enable-background="new    ">
			<g enable-background="new    ">
				<g enable-background="new    ">
					<text transform="matrix(1 0 0 1 76.856 160.455)" fill="#F1523F" font-family="'Aniuk-Regular'" font-size="35.4923">&lt;/&gt;</text>
				</g>
			</g>
		</g>
	</g>
</g>
</svg>
