<?xml version="1.0" encoding="utf-8"?>
<!-- Generator: Adobe Illustrator 18.0.0, SVG Export Plug-In . SVG Version: 6.00 Build 0)  -->
<!DOCTYPE svg PUBLIC "-//W3C//DTD SVG 1.1//EN" "http://www.w3.org/Graphics/SVG/1.1/DTD/svg11.dtd">
<svg version="1.1" id="Calque_1" xmlns="http://www.w3.org/2000/svg" xmlns:xlink="http://www.w3.org/1999/xlink" x="0px" y="0px"
	 viewBox="0 0 200 200" enable-background="new 0 0 200 200" xml:space="preserve">
<defs>
	<filter id="Adobe_OpacityMaskFilter" filterUnits="userSpaceOnUse" x="12.4" y="10.1" width="180" height="180">
		<feColorMatrix  type="matrix" values="1 0 0 0 0  0 1 0 0 0  0 0 1 0 0  0 0 0 1 0"/>
	</filter>
</defs>
<mask maskUnits="userSpaceOnUse" x="12.4" y="10.1" width="180" height="180" id="SVGID_1_">
	<g filter="url(#Adobe_OpacityMaskFilter)">
		<circle fill="#FFFFFF" cx="102.4" cy="100.1" r="90"/>
	</g>
</mask>
<g mask="url(#SVGID_1_)">
	<circle fill="#91C46C" cx="102.4" cy="100.1" r="90"/>
	
		<linearGradient id="SVGID_2_" gradientUnits="userSpaceOnUse" x1="134.0542" y1="78.5935" x2="103.0574" y2="102.3816" gradientTransform="matrix(1 0 0 -1 0 200)">
		<stop  offset="1.665364e-02" style="stop-color:#91C46C"/>
		<stop  offset="1" style="stop-color:#588D53"/>
	</linearGradient>
	<polygon fill="url(#SVGID_2_)" points="91,187.5 55.8,158.2 149.6,34.2 181.8,62.6 	"/>
	
		<rect x="56.1" y="37.3" transform="matrix(-1 -5.791068e-03 5.791068e-03 -1 206.336 196.0005)" fill="#F3EDD3" width="94.7" height="120.8"/>
	
		<rect x="56.3" y="37.7" transform="matrix(-1 -5.791068e-03 5.791068e-03 -1 207.0455 123.701)" fill="#F1523F" width="94.8" height="47.7"/>
	
		<rect x="62" y="89.7" transform="matrix(-1 -5.791068e-03 5.791068e-03 -1 149.032 196.9347)" fill="#19BEC0" width="25.6" height="17.1"/>
	
		<rect x="61.8" y="116.3" transform="matrix(-1 -5.791068e-03 5.791068e-03 -1 148.4781 250.134)" fill="#287D7D" width="25.6" height="17.1"/>
	
		<rect x="119.5" y="116.5" transform="matrix(-1 -5.791068e-03 5.791068e-03 -1 263.8786 250.8682)" fill="#287D7D" width="25.6" height="17.1"/>
	
		<rect x="90.8" y="116.4" transform="matrix(-1 -5.791068e-03 5.791068e-03 -1 206.4782 250.502)" fill="#287D7D" width="25.6" height="17.1"/>
	<path fill="#F3EDD3" d="M77.8,45l-14.4-0.1c-0.6,0-1.1-0.5-1.1-1.1v-2c0-0.6,0.5-1.1,1.1-1.1l14.4,0.1c0.6,0,1.1,0.5,1.1,1.1v2
		C78.9,44.5,78.4,45,77.8,45z"/>
	<path fill="#20D6C7" d="M144.8,45.3L99.3,45c-0.6,0-1.1-0.5-1.1-1.1v-2c0-0.6,0.5-1.1,1.1-1.1l45.5,0.3c0.6,0,1.1,0.5,1.1,1.1v2
		C145.8,44.9,145.4,45.3,144.8,45.3z"/>
	<path fill="#1C344D" d="M145.1,91.8L91,91.5c-0.2,0-0.4-0.2-0.4-0.4v-0.8c0-0.2,0.2-0.4,0.4-0.4l54.1,0.3c0.2,0,0.4,0.2,0.4,0.4
		v0.8C145.5,91.6,145.3,91.8,145.1,91.8z"/>
	<path fill="#1C344D" d="M122.7,94.6L91,94.4c-0.2,0-0.4-0.2-0.4-0.4v-0.8c0-0.2,0.2-0.4,0.4-0.4l31.8,0.2c0.2,0,0.4,0.2,0.4,0.4
		v0.8C123.2,94.4,123,94.6,122.7,94.6z"/>
	<path fill="#1C344D" d="M130.9,100.4L91,100.1c-0.2,0-0.4-0.2-0.4-0.4v-0.8c0-0.2,0.2-0.4,0.4-0.4l39.9,0.2c0.2,0,0.4,0.2,0.4,0.4
		v0.8C131.4,100.2,131.2,100.4,130.9,100.4z"/>
	<path fill="#1C344D" d="M109.3,97.3L91,97.2c-0.2,0-0.4-0.2-0.4-0.4v-0.9c0-0.2,0.2-0.4,0.4-0.4l18.3,0.1c0.2,0,0.4,0.2,0.4,0.4
		v0.8C109.7,97.1,109.5,97.3,109.3,97.3z"/>
	<path fill="#1C344D" d="M87.2,137.4l-24.9-0.1c-0.2,0-0.4-0.2-0.4-0.4v-0.8c0-0.2,0.2-0.4,0.4-0.4l24.9,0.1c0.2,0,0.4,0.2,0.4,0.4
		v0.8C87.6,137.2,87.4,137.4,87.2,137.4z"/>
	<path fill="#1C344D" d="M76.7,140.4l-14.4-0.1c-0.2,0-0.4-0.2-0.4-0.4v-0.8c0-0.2,0.2-0.4,0.4-0.4l14.4,0.1c0.2,0,0.4,0.2,0.4,0.4
		v0.8C77.1,140.2,76.9,140.4,76.7,140.4z"/>
	<path fill="#1C344D" d="M86.5,143.2l-24.2-0.1c-0.2,0-0.4-0.2-0.4-0.4v-0.9c0-0.2,0.2-0.4,0.4-0.4l24.2,0.1c0.2,0,0.4,0.2,0.4,0.4
		v0.8C86.9,143,86.7,143.2,86.5,143.2z"/>
	<path fill="#666666" d="M86.9,153.7l-12.7-0.1c-0.2,0-0.4-0.2-0.4-0.4v-0.8c0-0.2,0.2-0.4,0.4-0.4l12.8,0.1c0.2,0,0.4,0.2,0.4,0.4
		v0.8C87.4,153.5,87.2,153.7,86.9,153.7z"/>
	<path fill="#666666" d="M128.8,154l-39.3-0.2c-0.2,0-0.4-0.2-0.4-0.4v-0.8c0-0.2,0.2-0.4,0.4-0.4l39.3,0.2c0.2,0,0.4,0.2,0.4,0.4
		v0.8C129.3,153.8,129.1,154,128.8,154z"/>
	<path fill="#1C344D" d="M116,137.6l-24.9-0.1c-0.2,0-0.4-0.2-0.4-0.4v-0.8c0-0.2,0.2-0.4,0.4-0.4L116,136c0.2,0,0.4,0.2,0.4,0.4
		v0.8C116.5,137.4,116.3,137.6,116,137.6z"/>
	<path fill="#1C344D" d="M112.1,140.6l-21-0.1c-0.2,0-0.4-0.2-0.4-0.4v-0.8c0-0.2,0.2-0.4,0.4-0.4L112,139c0.2,0,0.4,0.2,0.4,0.4
		v0.8C112.5,140.4,112.3,140.6,112.1,140.6z"/>
	<path fill="#1C344D" d="M99.1,143.3H91c-0.2,0-0.4-0.2-0.4-0.4V142c0-0.2,0.2-0.4,0.4-0.4h8.1c0.2,0,0.4,0.2,0.4,0.4v0.8
		C99.7,143.1,99.4,143.3,99.1,143.3z"/>
	<path fill="#1C344D" d="M144.7,137.7l-24.9-0.1c-0.2,0-0.4-0.2-0.4-0.4v-0.8c0-0.2,0.2-0.4,0.4-0.4l24.9,0.1c0.2,0,0.4,0.2,0.4,0.4
		v0.8C145.2,137.5,145,137.7,144.7,137.7z"/>
	<path fill="#1C344D" d="M134.2,140.7l-14.4-0.1c-0.2,0-0.4-0.2-0.4-0.4v-0.8c0-0.2,0.2-0.4,0.4-0.4l14.4,0.1c0.2,0,0.4,0.2,0.4,0.4
		v0.8C134.7,140.5,134.5,140.7,134.2,140.7z"/>
	<path fill="#1C344D" d="M141.2,143.5l-21.5-0.1c-0.2,0-0.4-0.2-0.4-0.4v-0.9c0-0.2,0.2-0.4,0.4-0.4l21.5,0.1c0.2,0,0.4,0.2,0.4,0.4
		v0.8C141.7,143.3,141.4,143.5,141.2,143.5z"/>
	<path fill="#1C344D" d="M140.3,97.5l-29.1-0.2c-0.2,0-0.4-0.2-0.4-0.4V96c0-0.2,0.2-0.4,0.4-0.4l29.1,0.2c0.2,0,0.4,0.2,0.4,0.4V97
		C140.8,97.3,140.6,97.5,140.3,97.5z"/>
	<path fill="#D54F58" d="M115.3,107.1l-23-0.1c-0.7,0-1.3-0.6-1.3-1.3v-2.5c0-0.7,0.6-1.3,1.3-1.3l23,0.1c0.7,0,1.3,0.6,1.3,1.3v2.5
		C116.6,106.5,116,107.1,115.3,107.1z"/>
	<path fill="#E6E6E6" d="M150.1,38.8l-92.4-0.6c-0.7,0-1.2-0.5-1.2-1.2v-2.2c0-0.7,0.5-1.2,1.2-1.2l92.4,0.6c0.7,0,1.2,0.5,1.2,1.2
		v2.2C151.3,38.2,150.8,38.8,150.1,38.8z"/>
	<circle fill="#91C46C" cx="66.6" cy="36" r="1.1"/>
	<g>
		<path fill="#8B2B3B" d="M102.1,56.8c0.2-0.2,0.5-0.3,0.7-0.3c0.4,0,0.5,0.2,0.5,0.5c0,0.2-0.1,0.5-0.3,0.7c-0.4,0.5-0.8,1.3-1,2.3
			c-0.2,0.8-0.5,2.3-0.8,4.3c-0.3,1.8-1.1,3.3-2.6,4.5c-1.3,1-2.8,1.6-4.4,1.7c-1.5,0.1-2.7-0.3-3.7-1.2c-1-0.8-1.4-1.8-1.4-2.8
			c0.1-0.9,0.3-1.7,0.8-2.2s1.1-0.7,1.8-0.7c0.5,0,0.8,0.1,1.1,0.4c0.3,0.3,0.5,0.7,0.5,1.1c0,0.5-0.3,0.9-0.9,1.3
			c-0.4,0.3-0.6,0.6-0.6,1c0,0.3,0.1,0.5,0.3,0.8s0.5,0.4,0.9,0.4c0.6,0,1.2-0.3,1.9-0.8c0.8-0.6,1.6-1.5,2.2-2.6
			c0.2-0.3,0.7-1.3,1.4-3c0.7-1.5,1.3-2.6,1.8-3.5C100.3,58.4,100.9,57.8,102.1,56.8z M101.1,55.2c-1.1-0.6-2.1-0.9-3.2-0.9
			c-1.2,0-2.3,0.4-3.3,1.1S93,57.1,93,58.5c0,0.6,0.1,1.1,0.3,1.5c0.4,0.7,1,1,2,1c0.5,0,0.8-0.1,1.1-0.3c0.7-0.5,1.1-1.2,1.1-2
			c0-0.3-0.1-0.6-0.2-0.9c-0.2-0.3-0.2-0.5,0-0.8c0.1-0.2,0.3-0.3,0.6-0.3c0.4,0,0.6,0.2,0.9,0.6c0.1,0.2,0.2,0.5,0.2,0.8
			c0,1-0.4,2-1.1,2.8s-1.6,1.2-2.5,1.2c-0.7,0-1.4-0.3-2.1-0.8c-0.8-0.6-1.2-1.6-1.2-2.9c0-1.8,0.9-3.5,2.6-4.9
			c1.4-1.2,3-1.8,4.7-1.8c1,0,2.3,0.3,3.9,0.8c1.1,0.4,2,0.5,2.7,0.5s1.1-0.2,1.2-0.5c0.2-0.4,0.4-0.7,0.7-0.7
			c0.3,0,0.4,0.3,0.4,0.8c0,1-0.4,1.9-1.3,2.7c-0.7,0.6-1.5,1-2.2,1C103.9,56.5,102.7,56.1,101.1,55.2z"/>
		<path fill="#8B2B3B" d="M102.5,69.7c-0.5,0-1-0.3-1.4-0.8c-0.6-0.6-0.9-1.4-0.9-2.3c0-1.6,0.7-3,2.2-4.4c1.7-1.6,3.9-2.4,6.5-2.4
			c0.9,0,1.8,0.1,2.6,0.3c0.5-0.3,0.9-0.6,1.5-0.9c0.2-0.1,0.4-0.2,0.6-0.2c0.4,0,0.6,0.1,0.6,0.4c0,0.2-0.2,0.4-0.5,0.6
			c-0.4,0.2-0.7,0.3-1,0.5c1.2,0.6,2.1,1.4,2.6,2.4c0.5,0.8,0.7,1.5,0.7,2.2c0,0.6-0.2,1.3-0.7,1.9s-1,1-1.5,1.2
			c-0.6,0.2-1.1,0.3-1.5,0.3c0.1,0.1,0.3,0.2,0.4,0.3c0.2,0.3,0.4,0.5,0.4,0.8c0.1,0.9,0.1,1.6,0,2.2c0,0.2,0,0.4,0.1,0.6
			s0.3,0.3,0.5,0.3c0.3,0,0.6-0.2,0.9-0.6c0.2-0.3,0.5-0.4,0.8-0.4c0.2,0,0.3,0.1,0.3,0.3c0,0.2-0.2,0.6-0.6,1
			c-0.7,0.9-1.5,1.6-2.3,2.3c-1.1,0.8-1.9,1.2-2.7,1.2c-1.1,0-1.7-0.6-1.7-1.8c0-0.7,0.3-2.1,1-4.2c0.2-0.5,0.3-1,0.3-1.2
			c0-0.3-0.1-0.4-0.2-0.6c-0.1-0.1-0.3-0.2-0.4-0.3s-0.2-0.3-0.2-0.4c0-0.4,0.3-0.6,0.8-0.7c0.9-0.2,1.5-0.3,1.9-0.6
			c0.8-0.5,1.2-1.2,1.2-2.3c0-1.2-0.5-2.1-1.6-2.7c-1.1,1.3-2.4,3.9-3.6,7.9c-0.7,2.3-1.9,4.1-3.6,5.5c-1.4,1.2-2.9,1.7-4.4,1.7
			c-1.4,0-2.5-0.4-3.4-1.1s-1.4-1.7-1.4-2.8c0-1,0.3-1.8,1-2.4c0.5-0.4,1.1-0.7,1.7-0.7c0.5,0,0.9,0.2,1.2,0.5s0.5,0.7,0.5,1.1
			c0,0.5-0.2,0.8-0.7,1.1C98,72.8,97.8,73,97.8,73c-0.3,0.3-0.4,0.6-0.4,1s0.2,0.7,0.5,0.8c0.1,0.1,0.4,0.1,0.8,0.1
			c1.6,0.2,3.6-2.2,6.2-7c1.6-3,3.3-5.3,5.2-6.8c-0.6-0.2-1.2-0.2-1.8-0.2c-1.8,0-3.4,0.6-4.8,1.7s-2.1,2.4-2.1,3.7
			c0,0.6,0.1,1,0.4,1.3c0.2,0.2,0.4,0.3,0.8,0.4s0.6,0.2,0.7,0.3c0.2,0.2,0.3,0.4,0.3,0.7C103.4,69.5,103.1,69.7,102.5,69.7z"/>
	</g>
	<g>
		<path fill="#F3EDD3" d="M102.1,56.8c0.2-0.2,0.5-0.3,0.7-0.3c0.4,0,0.5,0.2,0.5,0.5c0,0.2-0.1,0.5-0.3,0.7c-0.4,0.5-0.8,1.3-1,2.3
			c-0.2,0.8-0.5,2.3-0.8,4.3c-0.3,1.8-1.1,3.3-2.6,4.5c-1.3,1-2.8,1.6-4.4,1.7c-1.5,0.1-2.7-0.3-3.7-1.2c-1-0.8-1.4-1.8-1.4-2.8
			c0.1-0.9,0.3-1.7,0.8-2.2s1.1-0.7,1.8-0.7c0.5,0,0.8,0.1,1.1,0.4c0.3,0.3,0.5,0.7,0.5,1.1c0,0.5-0.3,0.9-0.9,1.3
			c-0.4,0.3-0.6,0.6-0.6,1c0,0.3,0.1,0.5,0.3,0.8s0.5,0.4,0.9,0.4c0.6,0,1.2-0.3,1.9-0.8c0.8-0.6,1.6-1.5,2.2-2.6
			c0.2-0.3,0.7-1.3,1.4-3c0.7-1.5,1.3-2.6,1.8-3.5C100.3,58.4,100.9,57.8,102.1,56.8z M101.1,55.2c-1.1-0.6-2.1-0.9-3.2-0.9
			c-1.2,0-2.3,0.4-3.3,1.1S93,57.1,93,58.5c0,0.6,0.1,1.1,0.3,1.5c0.4,0.7,1,1,2,1c0.5,0,0.8-0.1,1.1-0.3c0.7-0.5,1.1-1.2,1.1-2
			c0-0.3-0.1-0.6-0.2-0.9c-0.2-0.3-0.2-0.5,0-0.8c0.1-0.2,0.3-0.3,0.6-0.3c0.4,0,0.6,0.2,0.9,0.6c0.1,0.2,0.2,0.5,0.2,0.8
			c0,1-0.4,2-1.1,2.8s-1.6,1.2-2.5,1.2c-0.7,0-1.4-0.3-2.1-0.8c-0.8-0.6-1.2-1.6-1.2-2.9c0-1.8,0.9-3.5,2.6-4.9
			c1.4-1.2,3-1.8,4.7-1.8c1,0,2.3,0.3,3.9,0.8c1.1,0.4,2,0.5,2.7,0.5s1.1-0.2,1.2-0.5c0.2-0.4,0.4-0.7,0.7-0.7
			c0.3,0,0.4,0.3,0.4,0.8c0,1-0.4,1.9-1.3,2.7c-0.7,0.6-1.5,1-2.2,1C103.9,56.5,102.7,56.1,101.1,55.2z"/>
		<path fill="#F3EDD3" d="M102.5,69.7c-0.5,0-1-0.3-1.4-0.8c-0.6-0.6-0.9-1.4-0.9-2.3c0-1.6,0.7-3,2.2-4.4c1.7-1.6,3.9-2.4,6.5-2.4
			c0.9,0,1.8,0.1,2.6,0.3c0.5-0.3,0.9-0.6,1.5-0.9c0.2-0.1,0.4-0.2,0.6-0.2c0.4,0,0.6,0.1,0.6,0.4c0,0.2-0.2,0.4-0.5,0.6
			c-0.4,0.2-0.7,0.3-1,0.5c1.2,0.6,2.1,1.4,2.6,2.4c0.5,0.8,0.7,1.5,0.7,2.2c0,0.6-0.2,1.3-0.7,1.9s-1,1-1.5,1.2
			c-0.6,0.2-1.1,0.3-1.5,0.3c0.1,0.1,0.3,0.2,0.4,0.3c0.2,0.3,0.4,0.5,0.4,0.8c0.1,0.9,0.1,1.6,0,2.2c0,0.2,0,0.4,0.1,0.6
			s0.3,0.3,0.5,0.3c0.3,0,0.6-0.2,0.9-0.6c0.2-0.3,0.5-0.4,0.8-0.4c0.2,0,0.3,0.1,0.3,0.3c0,0.2-0.2,0.6-0.6,1
			c-0.7,0.9-1.5,1.6-2.3,2.3c-1.1,0.8-1.9,1.2-2.7,1.2c-1.1,0-1.7-0.6-1.7-1.8c0-0.7,0.3-2.1,1-4.2c0.2-0.5,0.3-1,0.3-1.2
			c0-0.3-0.1-0.4-0.2-0.6c-0.1-0.1-0.3-0.2-0.4-0.3s-0.2-0.3-0.2-0.4c0-0.4,0.3-0.6,0.8-0.7c0.9-0.2,1.5-0.3,1.9-0.6
			c0.8-0.5,1.2-1.2,1.2-2.3c0-1.2-0.5-2.1-1.6-2.7c-1.1,1.3-2.4,3.9-3.6,7.9c-0.7,2.3-1.9,4.1-3.6,5.5c-1.4,1.2-2.9,1.7-4.4,1.7
			c-1.4,0-2.5-0.4-3.4-1.1s-1.4-1.7-1.4-2.8c0-1,0.3-1.8,1-2.4c0.5-0.4,1.1-0.7,1.7-0.7c0.5,0,0.9,0.2,1.2,0.5s0.5,0.7,0.5,1.1
			c0,0.5-0.2,0.8-0.7,1.1C98,72.8,97.8,73,97.8,73c-0.3,0.3-0.4,0.6-0.4,1s0.2,0.7,0.5,0.8c0.1,0.1,0.4,0.1,0.8,0.1
			c1.6,0.2,3.6-2.2,6.2-7c1.6-3,3.3-5.3,5.2-6.8c-0.6-0.2-1.2-0.2-1.8-0.2c-1.8,0-3.4,0.6-4.8,1.7s-2.1,2.4-2.1,3.7
			c0,0.6,0.1,1,0.4,1.3c0.2,0.2,0.4,0.3,0.8,0.4s0.6,0.2,0.7,0.3c0.2,0.2,0.3,0.4,0.3,0.7C103.4,69.5,103.1,69.7,102.5,69.7z"/>
	</g>
	<line fill="none" x1="61.7" y1="149.8" x2="145.7" y2="150.3"/>
	<line fill="none" x1="61.9" y1="109.8" x2="145.9" y2="110.3"/>
</g>
<circle fill="#D54F58" cx="59.2" cy="36.2" r="1.1"/>
<circle fill="#F7B66D" cx="62.7" cy="36.2" r="1.1"/>
</svg>
